<?xml version="1.0" encoding="UTF-8" standalone="no"?><!DOCTYPE svg PUBLIC "-//W3C//DTD SVG 1.1//EN" "http://www.w3.org/Graphics/SVG/1.1/DTD/svg11.dtd"><svg width="100%" height="100%" viewBox="0 0 100 100" version="1.1" xmlns="http://www.w3.org/2000/svg" xmlns:xlink="http://www.w3.org/1999/xlink" xml:space="preserve" xmlns:serif="http://www.serif.com/" style="fill-rule:evenodd;clip-rule:evenodd;stroke-linejoin:round;stroke-miterlimit:2;"><path id="LIst-BG" serif:id="LIst BG" d="M100,19.98700115L20,100.01171477L-850,100.01171477L-930,19.98700115L-930,-1314.98828523L100,-1314.98828523L100,19.98700115Z" style="fill:#27282d;"/><g id="IPhone"></g><path d="M-930,20.01171477L-930,-1451.9928367L-853.61668796,-1451.9928367L-740.61213649,-1338.98828523L-573,-1338.98828523L-573,-1597.98828523L-508.8719594,-1597.98828523L-508.8719594,-1573.98828523L-550,-1573.98828523L-550,-1338.98828523L-486.7761103,-1338.98828523L-385.76227869,-1440.00211684L-385.76227869,-1451.9928367L-373.77155883,-1451.9928367L-370.77155883,-1454.9928367L-370.77155883,-1451.9928367L-13.00455147,-1451.9928367L100,-1338.98828523L100,20.01171477L99.98828523,20.01171477L20,100L-849.95002114,100L-849.95002114,99.95002114L-850,100L-929.98828523,20.01171477L-930,20.01171477ZM76,-1314.98828523L-906,-1314.98828523L-906,9.49390335L-839.89339828,75.60050506L9.89339828,75.60050506L76,9.49390335L76,-1314.98828523Z" style="fill:#e53c3c;"/></svg>